<svg width="19" height="19" viewBox="0 0 19 19" fill="none" xmlns="http://www.w3.org/2000/svg">
<path d="M7.4796 1.32968L7.20616 1.15819C6.671 0.830067 6.00303 0.639442 5.42881 0.818348C4.81163 1.01054 4.31944 1.48593 4.06163 2.19999L3.69444 2.01093C3.06163 1.68515 2.73038 1.68007 2.45577 1.8035C2.23663 1.90155 2.00811 2.13749 1.74913 2.48202L4.96788 4.97069C5.47178 5.13475 6.21006 5.13085 6.94835 4.93944C7.69053 4.74804 8.42881 4.37304 8.96788 3.86913L10.1827 0.865223C9.11241 0.0195202 8.13585 0.509364 7.4796 1.32968V1.32968ZM9.55382 4.31835C8.88975 4.99022 7.90147 5.44335 7.13194 5.64647C6.86241 5.71679 6.59288 5.76757 6.33116 5.79491C6.18663 6.03319 6.06553 6.27538 5.97178 6.51757C6.15928 7.47069 6.51085 8.25194 7.03819 8.89257L6.47569 9.36132C6.15147 8.97069 5.86241 8.54882 5.64366 8.08007C5.6085 8.98632 5.81163 9.92382 6.14366 10.9004L5.45225 11.1348C4.84288 9.3535 4.63585 7.52929 5.49131 5.81054C5.20225 5.7871 4.92881 5.73241 4.67491 5.64257L4.66319 5.63866C4.49522 5.79882 4.33506 5.96679 4.18272 6.14257C2.94952 7.57225 2.27022 9.4746 2.62569 10.9551C2.81592 11.748 3.15694 12.498 3.64756 13.1387C4.36631 13.123 5.046 13.1387 5.66319 13.373C5.95616 13.3418 6.25694 13.3223 6.56944 13.3223C7.68272 13.3223 8.69053 13.5293 9.45225 13.8887C9.74913 14.0293 10.0187 14.1973 10.2335 14.3887C10.2335 14.1816 10.2648 13.959 10.3273 13.7949C9.9796 13.4668 9.76085 13.0683 9.76085 12.6152C9.76085 11.9863 10.1788 11.4668 10.7843 11.0918C10.7843 10.9121 10.8194 10.7402 10.8819 10.5762C10.4874 10.2363 10.2335 9.81444 10.2335 9.32225C10.2335 9.01366 10.3351 8.73241 10.5069 8.4785C10.3351 8.2285 10.2335 7.94725 10.2335 7.63866C10.2335 7.48632 10.2569 7.34569 10.2999 7.20897C9.921 6.87304 9.68272 6.45897 9.68272 5.98241C9.68272 5.50975 9.9171 5.0996 10.2921 4.76757C10.0616 4.58788 9.81553 4.43554 9.55382 4.31835V4.31835ZM13.9054 4.40819C12.8898 4.40819 11.9718 4.62304 11.3429 4.93944C10.7101 5.25585 10.4132 5.64647 10.4132 5.98241C10.4132 6.32225 10.7101 6.71288 11.3429 7.02929C11.9718 7.34569 12.8898 7.56054 13.9054 7.56054C14.3468 7.56054 14.7648 7.51757 15.1515 7.44725V6.78319C15.6944 6.70116 16.1437 6.55272 16.4327 6.36132V7.04882C16.921 6.90819 17.3898 6.38866 17.4015 5.98241C17.4015 5.64647 17.1046 5.25585 16.4718 4.93944C15.839 4.62304 14.9249 4.40819 13.9054 4.40819V4.40819ZM17.6749 7.05272C17.546 7.18944 17.3937 7.31835 17.2218 7.43554L17.2296 8.56835C17.7218 8.27538 17.9523 7.93554 17.9523 7.63866C17.9523 7.45116 17.8624 7.24804 17.6749 7.05272V7.05272ZM10.964 7.65429C10.9757 7.99022 11.2726 8.36913 11.8937 8.68163C12.5265 9.00194 13.4405 9.21288 14.4601 9.21288C15.0968 9.21288 15.6944 9.12694 16.2062 8.98632L16.2335 7.92382C15.5616 8.15819 14.7648 8.2871 13.9054 8.2871C12.7921 8.2871 11.7804 8.06444 11.0148 7.68163C10.9952 7.67382 10.9796 7.6621 10.964 7.65429V7.65429ZM11.0421 9.01366C10.9874 9.11913 10.964 9.2246 10.964 9.32225C10.964 9.6621 11.2608 10.0527 11.8937 10.3691C12.5265 10.6855 13.4405 10.8965 14.4601 10.8965C14.9757 10.8965 15.464 10.8457 15.9054 10.748V9.81054C15.4523 9.89647 14.9679 9.93944 14.4601 9.93944C13.3429 9.93944 12.3312 9.72069 11.5655 9.33397C11.3741 9.24022 11.1983 9.13085 11.0421 9.01366V9.01366ZM17.8741 9.01366C17.6358 9.18163 17.4288 9.30663 17.1866 9.4121V10.2832C17.7062 9.98241 17.9523 9.63085 17.9523 9.32225C17.9523 9.2246 17.9288 9.11913 17.8741 9.01366ZM18.1671 10.4512C18.089 10.5293 18.003 10.6035 17.9093 10.6777V11.9433C18.3116 11.6699 18.5069 11.3691 18.5069 11.0957C18.5069 10.8887 18.3937 10.666 18.1671 10.4512ZM11.5226 10.998C11.5187 11.0332 11.5148 11.0644 11.5148 11.0957C11.5148 11.4355 11.8116 11.8223 12.4444 12.1387C13.0773 12.459 13.9952 12.6699 15.0108 12.6699C15.5929 12.6699 16.1476 12.5996 16.628 12.4824V11.3144C15.9913 11.5176 15.253 11.6269 14.4601 11.6269C13.3429 11.6269 12.3312 11.4043 11.5655 11.0215C11.5499 11.0137 11.5382 11.0058 11.5226 10.998V10.998ZM10.9913 11.834C10.6515 12.0879 10.4913 12.3652 10.4913 12.6152C10.4913 12.9551 10.7882 13.3418 11.421 13.6621C12.0538 13.9785 12.9679 14.1894 13.9874 14.1894C14.3585 14.1894 14.7179 14.1621 15.0538 14.1113V13.4004H15.0108C13.8937 13.4004 12.8819 13.1777 12.1163 12.791C11.628 12.5488 11.2218 12.2246 10.9913 11.834V11.834ZM17.339 13.0293C17.0304 13.1387 16.6944 13.2285 16.3351 13.2871V13.7598C16.4093 13.7285 16.4835 13.6973 16.5538 13.6621C16.9366 13.4668 17.1944 13.248 17.339 13.0293V13.0293ZM17.6983 13.7402C17.5499 13.8887 17.378 14.0215 17.1866 14.1426V15.2598C17.7062 14.9629 17.9523 14.6113 17.9523 14.3027C17.9523 14.123 17.8702 13.9277 17.6983 13.7402V13.7402ZM4.07725 13.8496C3.67881 13.8535 3.24913 13.9043 2.80381 14.0098C1.9128 14.2168 1.14678 14.5957 0.646783 15.0137C0.146783 15.4277 -0.0485292 15.8496 0.0100645 16.1504C0.0686583 16.4512 0.377252 16.7285 0.978815 16.8887C1.57842 17.0449 2.4171 17.0527 3.30772 16.8457C3.6671 16.7598 4.00303 16.6504 4.31163 16.5215V15.7129C4.88194 15.459 5.30772 15.1543 5.49913 14.8574V15.8105C5.97178 15.4043 6.15538 14.998 6.10069 14.7012C6.046 14.4004 5.7335 14.123 5.13194 13.9668C4.83116 13.8887 4.47178 13.8457 4.07725 13.8496ZM6.60069 14.0527C6.70616 14.2051 6.78038 14.3769 6.81944 14.5683C6.86241 14.8027 6.84288 15.0293 6.77256 15.2519C7.15928 15.3535 7.51085 15.4902 7.81553 15.6621C7.98741 15.7558 8.14756 15.8691 8.28819 15.9863C8.63975 15.9043 8.93663 15.7871 9.14756 15.6465V16.4512C9.77647 16.1543 10.0655 15.791 10.0655 15.5019C10.0655 15.209 9.77647 14.8457 9.14366 14.5488C8.51475 14.2558 7.6085 14.0566 6.60069 14.0527V14.0527ZM10.9679 14.248C10.964 14.2637 10.964 14.2832 10.964 14.3027C10.964 14.6426 11.2608 15.0293 11.8937 15.3496C12.5265 15.666 13.4405 15.8769 14.4601 15.8769C14.9757 15.8769 15.464 15.8223 15.9054 15.7285V14.6777C15.3273 14.834 14.6749 14.9199 13.9874 14.9199C12.8702 14.9199 11.8585 14.6973 11.0929 14.3144C11.0499 14.291 11.0069 14.2676 10.9679 14.248V14.248ZM11.0773 15.7051C10.9991 15.834 10.964 15.959 10.964 16.0801C10.964 16.4199 11.2608 16.8066 11.8937 17.1269C12.5265 17.4433 13.4405 17.6543 14.4601 17.6543C14.9757 17.6543 15.464 17.5996 15.9054 17.5058V16.4746C15.4523 16.5605 14.9679 16.6074 14.4601 16.6074C13.3429 16.6074 12.3312 16.3848 11.5655 15.998C11.3898 15.9121 11.2257 15.8144 11.0773 15.7051V15.7051ZM17.839 15.7051C17.6124 15.8574 17.4132 15.9785 17.1866 16.0762V17.0371C17.7062 16.7402 17.9523 16.3887 17.9523 16.0801C17.9523 15.959 17.9171 15.834 17.839 15.7051V15.7051ZM6.40928 15.916C6.27256 16.0879 6.11241 16.2519 5.93272 16.4004C5.32335 16.9121 4.46397 17.3262 3.47178 17.5566C3.11788 17.6387 2.76631 17.6894 2.42881 17.7168C2.55381 17.9238 2.77374 18.1269 3.09561 18.3066C3.62803 18.6074 4.40928 18.8105 5.27647 18.8105C5.671 18.8105 6.046 18.7676 6.38975 18.6933V17.8808C6.92881 17.7988 7.38194 17.6504 7.671 17.459V18.1777C8.06163 17.9043 8.24913 17.5957 8.24913 17.3027C8.24913 16.9629 7.99522 16.5996 7.46006 16.2988C7.171 16.1387 6.81163 16.0058 6.40928 15.916V15.916Z" fill="#FCFCF3"/>
</svg>
