<svg width="20" height="20" viewBox="0 0 20 20" fill="none" xmlns="http://www.w3.org/2000/svg">
<path d="M10.4838 0.865967L8.29952 4.16605L9.46034 4.31187C9.10019 5.48882 9.02694 6.29929 9.11327 7.9103C9.66554 7.82319 10.1117 7.79214 10.6987 7.9646C10.3128 6.52554 10.3532 6.03386 10.508 4.45804L11.7823 4.54698L10.4838 0.865967V0.865967ZM19.0183 0.952295L14.7855 2.12534L15.6025 3.13999C13.6684 4.35167 12.4645 5.30983 11.511 7.95108C12.0267 7.94515 12.6086 8.06519 13.2366 8.3028C13.4603 6.55804 14.5546 5.32858 16.3343 4.04819L17.1149 5.01757L19.0183 0.952334V0.952295ZM0.909912 1.04253L3.48331 5.04585L4.22878 3.92433C5.61761 5.19151 6.50007 6.90597 6.46737 8.12081C7.19269 7.78112 7.6364 7.74866 8.41015 7.97323C8.09354 6.75437 6.70792 3.72628 4.8305 2.93015L5.47776 1.91308L0.909951 1.04249L0.909912 1.04253ZM11.6957 9.42796C11.4895 9.43265 11.2969 9.5223 11.0341 9.80272L10.7777 10.075L10.5116 9.81245C10.223 9.52808 9.99534 9.44956 9.76452 9.45972C9.53374 9.46987 9.26237 9.59124 8.95886 9.8369L8.71601 10.0334L8.4853 9.82347C8.13765 9.50894 7.84136 9.41569 7.55757 9.43034C7.35101 9.44104 7.13667 9.51886 6.9228 9.65495L8.52304 12.5335C9.12671 12.9026 10.3603 13.0415 11.2086 12.614L12.7552 9.74901C12.4619 9.6294 12.1982 9.50675 11.9703 9.45972C11.8878 9.44265 11.8113 9.43019 11.7372 9.42796C11.7234 9.42761 11.7096 9.42761 11.6958 9.42796H11.6957ZM8.18128 13.1853V13.1854C7.47679 13.6831 6.91112 14.5415 6.69202 15.7988C6.47972 17.0174 6.81425 17.8405 7.4062 18.4014C7.99819 18.9623 8.88675 19.2504 9.78901 19.2387C10.6914 19.227 11.5912 18.9141 12.1962 18.3428C12.8013 17.7714 13.1435 16.959 12.9494 15.7964C12.7487 14.595 12.2307 13.7594 11.5748 13.2537C10.4622 13.8418 9.07108 13.7168 8.18124 13.1853H8.18128Z" fill="#FCFCF3"/>
</svg>
