<svg width="20" height="20" viewBox="0 0 20 20" fill="none" xmlns="http://www.w3.org/2000/svg">
<path d="M10.0781 0.855103C10.0586 0.855103 10.0313 0.855103 10.0078 0.85979C9.82813 0.892993 9.61328 1.05901 9.47266 1.43831C9.32422 1.81721 9.29297 2.35745 9.42187 2.93596C9.55469 3.50745 9.82812 4.00002 10.1328 4.30081C10.4297 4.60159 10.6992 4.68362 10.8789 4.65237C11.0664 4.62502 11.2734 4.45315 11.4141 4.07815C11.5625 3.70159 11.6016 3.15393 11.4688 2.5801C11.332 2.00198 11.0625 1.51409 10.7578 1.21526C10.5 0.949634 10.2617 0.855103 10.0781 0.855103V0.855103ZM14.5859 5.91409C14.1562 5.92581 13.6133 6.03909 13.0859 6.26174C12.4766 6.52737 12.0078 6.88284 11.75 7.21877C11.4922 7.54299 11.4688 7.78909 11.5508 7.93362C11.6367 8.07815 11.875 8.21487 12.332 8.2344C12.7891 8.26174 13.4063 8.14846 14.0117 7.89065C14.6172 7.62893 15.0938 7.26956 15.3516 6.94143C15.6094 6.61721 15.6289 6.36331 15.5469 6.21877C15.4648 6.07034 15.2227 5.94143 14.7656 5.92581C14.7031 5.91409 14.6484 5.91409 14.5859 5.91409V5.91409ZM9.26172 9.54299C9.00391 9.5469 8.76953 9.57815 8.55859 9.63284C8.09766 9.75002 7.83203 9.96096 7.74609 10.2149C7.64844 10.4688 7.74609 10.7735 8.05078 11.1016C8.37109 11.4219 8.89844 11.7305 9.55469 11.9024C10.207 12.0742 10.8359 12.0703 11.3047 11.9453C11.7773 11.8242 12.043 11.6094 12.1289 11.3594C12.2187 11.1055 12.1289 10.8047 11.8125 10.4727C11.5039 10.1524 10.9766 9.84377 10.3203 9.67581C9.94922 9.57815 9.58594 9.53909 9.26172 9.54299V9.54299ZM15.5391 11.8125L13.125 12.9571C13.2891 12.9649 13.6992 12.9766 13.6992 12.9766L13.957 13.3164L16.0938 12.2031L15.5391 11.8125V11.8125ZM13.4102 11.8164L11.168 12.8789C11.3828 12.8906 11.8906 12.8985 12.0938 12.9102L14.0391 11.9883L13.4102 11.8164ZM17.0273 12.2383L14.2734 13.6992L14.8398 14.4297L17.75 12.6875L17.0273 12.2383V12.2383ZM6.13672 12.5938C6.01844 12.5936 5.90051 12.6067 5.78516 12.6328C2.99219 13.2774 1.34375 13.3321 0.855469 13.3321H0.703125V17.5313C0.703125 17.5313 1.15625 17.4649 1.91016 17.461C3.36719 17.461 5.93359 17.711 8.43359 19.1719C8.56641 19.2539 8.85156 19.2852 9.20703 19.2852C10.1562 19.2852 11.5977 19.0586 11.9297 18.9336C15.2734 17.6797 19.2969 14.2383 19.2969 14.2383L18.0273 13.1289C18.0273 13.1289 14.9102 15.1172 14.5156 15.3086C10.957 17.0547 8.07422 15.9649 8.07422 15.9649C8.07422 15.9649 12.7578 16.0821 14.2617 14.8985L13.3789 13.5703C13.3789 13.5703 10.1445 13.4805 8.99219 13.3281C8.39062 13.25 7.08984 12.5938 6.13672 12.5938V12.5938Z" fill="#FCFCF3"/>
</svg>
