<svg width="267" height="82" viewBox="0 0 267 82" fill="none" xmlns="http://www.w3.org/2000/svg">
<rect width="266.013" height="81.1139" rx="40.5569" fill="#DCDCD4"/>
<path d="M93.2626 53.5113C91.0785 53.5113 89.0881 53.0667 87.3128 52.1882C85.5376 51.3098 84.1281 49.9325 83.0952 48.0888C82.0516 46.2451 81.5352 43.8917 81.5352 41.0394C81.5352 38.3607 82.0731 36.0507 83.149 34.0986C84.2249 32.1464 85.6451 30.639 87.3989 29.5761C89.1526 28.5133 91.0247 27.9711 92.9936 27.9711C95.3284 27.9711 97.0929 28.3615 98.2871 29.1423C99.4921 29.9232 100.482 30.78 101.267 31.7235L100.945 32.6453L101.644 29.1749H108.637V52.8606H101.106V47.7092L101.698 49.336C101.622 49.336 101.407 49.542 101.052 49.965C100.697 50.3771 100.159 50.8651 99.4706 51.4291C98.7713 51.993 97.9105 52.4811 96.8884 52.8932C95.8663 53.3053 94.6505 53.5113 93.2518 53.5113H93.2626ZM95.4144 47.3296C96.3074 47.3296 97.1144 47.1995 97.8352 46.9175C98.5561 46.6464 99.1801 46.2451 99.7181 45.7245C100.256 45.204 100.719 44.5424 101.117 43.7399V37.9377C100.826 37.146 100.396 36.4628 99.8257 35.8989C99.2554 35.3349 98.5669 34.9011 97.7814 34.5974C96.996 34.2938 96.1138 34.1419 95.1455 34.1419C94.0695 34.1419 93.0689 34.4239 92.1544 34.9879C91.2399 35.5518 90.5083 36.311 89.9703 37.287C89.4324 38.2631 89.1634 39.3801 89.1634 40.649C89.1634 41.9179 89.4539 43.0566 90.0241 44.0652C90.5943 45.0738 91.3582 45.8764 92.305 46.4512C93.2518 47.026 94.2847 47.3188 95.4037 47.3188L95.4144 47.3296Z" fill="#464646"/>
<path d="M119.999 29.1641L120.591 33.3937L120.483 33.0141C121.312 31.5283 122.474 30.3245 123.98 29.4027C125.486 28.4809 127.337 28.0145 129.521 28.0145C131.705 28.0145 133.599 28.6761 135.094 29.9992C136.579 31.3223 137.343 33.025 137.375 35.1289V52.8607H129.844V37.9487C129.811 36.8967 129.532 36.0616 129.004 35.4218C128.488 34.7927 127.617 34.4674 126.39 34.4674C125.239 34.4674 124.238 34.847 123.377 35.6061C122.517 36.3653 121.85 37.3956 121.387 38.697C120.924 39.9984 120.688 41.495 120.688 43.1977V52.8499H113.156V29.1641H119.988H119.999Z" fill="#464646"/>
<path d="M153.46 53.5114C150.587 53.5114 148.156 52.9692 146.165 51.8847C144.175 50.8001 142.658 49.3035 141.625 47.3839C140.592 45.4643 140.065 43.2628 140.065 40.7684C140.065 38.274 140.678 36.2351 141.894 34.3155C143.11 32.396 144.745 30.8668 146.789 29.7281C148.833 28.5893 151.114 28.0145 153.621 28.0145C156.989 28.0145 159.765 29.0014 161.927 30.9752C164.101 32.9491 165.499 35.7905 166.145 39.5212L147.854 45.3776L146.187 41.2564L159.42 36.7557L157.86 37.4606C157.57 36.5171 157.064 35.7037 156.332 34.9988C155.601 34.2939 154.493 33.936 153.019 33.936C151.91 33.936 150.931 34.1962 150.092 34.7277C149.253 35.2591 148.607 35.9965 148.156 36.9509C147.704 37.9053 147.488 39.0332 147.488 40.3346C147.488 41.8204 147.757 43.0567 148.295 44.0436C148.833 45.0414 149.565 45.7897 150.501 46.2994C151.437 46.8091 152.47 47.0586 153.621 47.0586C154.45 47.0586 155.246 46.9176 156.01 46.6248C156.784 46.3319 157.538 45.9524 158.291 45.486L161.626 51.1255C160.367 51.8521 159.022 52.4269 157.559 52.8607C156.107 53.2945 154.74 53.5114 153.449 53.5114H153.46Z" fill="#464646"/>
<path d="M176.269 29.164L176.969 35.6711L176.807 34.6951C177.485 33.2852 178.421 32.0814 179.605 31.0836C180.788 30.0859 181.961 29.3267 183.123 28.7845C184.285 28.2422 185.178 27.9711 185.791 27.9711L185.414 35.5627C183.661 35.3458 182.154 35.6386 180.896 36.4303C179.637 37.222 178.669 38.2739 177.991 39.5754C177.313 40.8768 176.969 42.2107 176.969 43.5881V52.8606H169.491V29.164H176.269V29.164Z" fill="#464646"/>
<path d="M200.639 53.5113C198.454 53.5113 196.464 53.0667 194.689 52.1882C192.914 51.3098 191.504 49.9325 190.471 48.0888C189.428 46.2451 188.911 43.8917 188.911 41.0394C188.911 38.3607 189.449 36.0507 190.525 34.0986C191.601 32.1464 193.021 30.639 194.775 29.5761C196.529 28.5133 198.401 27.9711 200.37 27.9711C202.704 27.9711 204.469 28.3615 205.663 29.1423C206.868 29.9232 207.858 30.78 208.643 31.7235L208.321 32.6453L209.02 29.1749H216.013V52.8606H208.482V47.7092L209.074 49.336C208.998 49.336 208.783 49.542 208.428 49.965C208.073 50.3771 207.535 50.8651 206.847 51.4291C206.147 51.993 205.287 52.4811 204.264 52.8932C203.242 53.3053 202.027 53.5113 200.628 53.5113H200.639ZM202.79 47.3296C203.683 47.3296 204.49 47.1995 205.211 46.9175C205.932 46.6464 206.556 46.2451 207.094 45.7245C207.632 45.204 208.095 44.5424 208.493 43.7399V37.9377C208.202 37.146 207.772 36.4628 207.202 35.8989C206.631 35.3349 205.943 34.9011 205.157 34.5974C204.372 34.2938 203.49 34.1419 202.521 34.1419C201.446 34.1419 200.445 34.4239 199.53 34.9879C198.616 35.5518 197.884 36.311 197.346 37.287C196.808 38.2631 196.539 39.3801 196.539 40.649C196.539 41.9179 196.83 43.0566 197.4 44.0652C197.97 45.0738 198.734 45.8764 199.681 46.4512C200.628 47.026 201.661 47.3188 202.78 47.3188L202.79 47.3296Z" fill="#464646"/>
<path d="M58.1447 34.6301L57.9187 36.7015L59.1345 35.1398L72.4435 20H82.8584L66.0096 38.4367L82.9122 61.1139H72.7125L60.1351 43.5665L58.1447 45.5728V61.103H50V20H58.1447V34.6301Z" fill="#464646"/>
</svg>
